<?xml version="1.0" encoding="UTF-8" standalone="no"?>
<svg
   width="1.48611in"
   height="0.986111in"
   viewBox="0 0 214 142"
   version="1.1"
   id="svg1"
   sodipodi:docname="FSL-WBM_issvg.svg"
   inkscape:version="1.3.2 (091e20e, 2023-11-25, custom)"
   xmlns:inkscape="http://www.inkscape.org/namespaces/inkscape"
   xmlns:sodipodi="http://sodipodi.sourceforge.net/DTD/sodipodi-0.dtd"
   xmlns="http://www.w3.org/2000/svg"
   xmlns:svg="http://www.w3.org/2000/svg">
  <defs
     id="defs1" />
  <sodipodi:namedview
     id="namedview1"
     pagecolor="#505050"
     bordercolor="#ffffff"
     borderopacity="1"
     inkscape:showpageshadow="0"
     inkscape:pageopacity="0"
     inkscape:pagecheckerboard="1"
     inkscape:deskcolor="#505050"
     inkscape:document-units="in"
     inkscape:zoom="4.1038738"
     inkscape:cx="67.619039"
     inkscape:cy="40.815096"
     inkscape:window-width="1920"
     inkscape:window-height="991"
     inkscape:window-x="2391"
     inkscape:window-y="769"
     inkscape:window-maximized="1"
     inkscape:current-layer="svg1" />
  <path
     d="m 28.790051,110.27055 -17.100593,8.11817 17.100593,8.47266 v -2.52246 l -11.771489,-5.81836 11.771489,-5.85938 z"
     style=""
     id="path33" />
  <path
     d="m 185.39949,110.12114 v 2.54004 l 11.75977,5.85938 -11.75977,5.81836 v 2.39062 l 17.0918,-8.08887 z"
     style=""
     id="path32" />
  <path
     d="m 136.15142,108.99907 c -1.01,0 -1.9716,0.0697 -2.8916,0.21972 -0.92,0.14 -2.07117,0.43012 -3.45117,0.87012 v 2.46973 c 1.22,-0.65 2.28043,-1.07977 3.19043,-1.25977 0.91,-0.2 1.75074,-0.29882 2.51074,-0.29882 0.53,0 1.02072,0.0599 1.4707,0.16992 0.46,0.11 0.87047,0.30988 1.23047,0.62988 0.32,0.27 0.53918,0.61074 0.65918,1.01074 0.13,0.41 0.19043,0.96993 0.19043,1.66993 v 1.5205 h -1.97168 c -2.69998,0 -4.83896,0.56973 -6.41894,1.71973 -1.59,1.15 -2.37891,2.60868 -2.37891,4.38868 0,1.44998 0.52961,2.62027 1.59961,3.53027 1.06,0.91 2.35992,1.35938 3.91992,1.35938 0.9,0 1.81805,-0.13946 2.74805,-0.43946 0.92,-0.29 1.92,-0.80859 3,-1.55859 0.35,0.87 0.80231,1.4182 1.36231,1.6582 0.56,0.23 1.15761,0.33985 1.80761,0.33985 0.56,0 1.37286,-0.13895 2.42286,-0.41895 l -0.29004,-1.5791 h -1.00196 c -0.29,0 -0.54,-0.0511 -0.75,-0.16114 -0.22,-0.1 -0.37804,-0.23894 -0.49804,-0.41894 -0.18,-0.22 -0.29227,-0.48981 -0.32227,-0.79981 -0.03,-0.3 -0.0381,-0.75058 -0.0381,-1.35058 v -7.35938 c 0,-1 -0.0802,-1.85125 -0.24023,-2.53125 -0.15,-0.69 -0.49195,-1.32086 -1.00195,-1.88086 -0.93,-1 -2.54743,-1.5 -4.85743,-1.5 z m 1.95996,9 h 0.94922 v 4.88086 c -0.77,0.71 -1.53052,1.24082 -2.2705,1.59082 -0.73,0.35 -1.43868,0.53028 -2.13868,0.53028 -1.02,0 -1.79101,-0.29994 -2.29101,-0.91992 -0.52,-0.62 -0.77051,-1.3409 -0.77051,-2.1709 0,-1.2 0.52152,-2.15059 1.56152,-2.85059 1.05,-0.7 2.70998,-1.06055 4.95996,-1.06055 z"
     style=""
     id="path31" />
  <path
     d="m 90.290076,108.99907 v 2.00098 h 6.369143 v 15.99903 h 3.169924 v -18.00001 z"
     style=""
     id="path30" />
  <path
     d="m 77.54886,108.99907 c -2.349996,0 -4.157506,0.9518 -5.437502,2.8418 -1.279998,1.88998 -1.921876,4.11848 -1.921876,6.68848 0,1.18998 0.151172,2.33945 0.451172,3.43945 0.31,1.1 0.768674,2.06231 1.388672,2.86231 0.49,0.65 1.141175,1.1791 1.951173,1.5791 0.819998,0.39 1.739261,0.58887 2.739259,0.58887 0.689998,0 1.328948,-0.0976 1.918946,-0.30762 0.58,-0.22 1.160237,-0.55196 1.740235,-1.00196 0.36,-0.29 0.700743,-0.60043 1.010743,-0.94043 0.31,-0.33 0.680352,-0.90902 1.110352,-1.74902 h 0.19043 l -0.351563,3.16113 c -0.09,0.87 -0.219649,1.58747 -0.389649,2.14747 -0.159998,0.57 -0.469922,1.07 -0.919922,1.5 -0.769998,0.79 -2.029302,1.19238 -3.779298,1.19238 -0.69,0 -1.398675,-0.0599 -2.138673,-0.16992 -0.739998,-0.11 -1.791138,-0.42043 -3.161134,-0.94043 l -0.331055,2.30859 c 2.089996,0.53 3.960358,0.79981 5.610354,0.79981 1.499996,0 2.789613,-0.18957 3.849611,-0.55957 1.069998,-0.37 2.000784,-1.03856 2.800782,-2.01856 0.729998,-0.95 1.200393,-1.99012 1.400391,-3.12012 0.2,-1.13 0.298829,-2.61191 0.298829,-4.46191 v -13.83985 h -2.797853 v 2.00098 h -0.19043 c -1.039998,-0.84 -1.931878,-1.38012 -2.671876,-1.62012 -0.729998,-0.26 -1.52012,-0.38086 -2.370118,-0.38086 z m 0.421875,2.00098 c 0.729998,0 1.440392,0.20007 2.150392,0.58007 0.709998,0.37 1.468088,1.07008 2.288086,2.08008 v 7.5586 c -0.409998,0.73 -0.749531,1.23981 -1.019531,1.54981 -0.27,0.28998 -0.579924,0.59234 -0.919922,0.90234 -1.039998,0.89 -2.059808,1.33008 -3.049806,1.33008 -1.219998,0 -2.168869,-0.56973 -2.838869,-1.71973 -0.679998,-1.16 -1.022461,-2.73145 -1.022461,-4.73145 0,-2.20998 0.361057,-4.01871 1.081055,-5.42871 0.719998,-1.41 1.83106,-2.12109 3.331056,-2.12109 z"
     style=""
     id="path29" />
  <path
     d="m 51.679709,108.99907 v 2.00098 h 6.380862 v 15.99903 h 3.169923 v -18.00001 z"
     style=""
     id="path28" />
  <path
     d="m 113.27055,105.00004 v 3.99903 h -4.37109 v 2.00098 h 4.37109 v 8.94141 c 0,1.35998 0.0895,2.48965 0.26954,3.38965 0.19,0.87998 0.56966,1.61847 1.13964,2.18847 0.96,0.99 2.71053,1.4795 5.27051,1.4795 h 4.59962 v -1.99805 h -3.91993 c -0.65,0 -1.26965,-0.0697 -1.88965,-0.21973 -0.6,-0.14 -1.12152,-0.41273 -1.56152,-0.80273 -0.26,-0.22 -0.44957,-0.49789 -0.55957,-0.83789 -0.11,-0.33 -0.1582,-1.0893 -0.1582,-2.2793 v -9.86133 h 7.74902 v -2.00098 h -7.74902 v -3.99903 z"
     style=""
     id="path27" />
  <path
     d="m 180.74129,102.00004 -14.83009,30.00001 h 2.66895 l 14.80957,-30.00001 z"
     style=""
     id="path26" />
  <path
     d="m 148.18951,102.00004 v 2.00098 h 6.76173 v 22.99806 h 3.1875 v -24.99904 z"
     style=""
     id="path25" />
  <path
     d="m 96.249063,102.00004 v 3 h 3.990237 v -3 z"
     style=""
     id="path24" />
  <path
     d="m 57.650414,102.00004 v 3 h 3.990236 v -3 z"
     style=""
     id="path23" />
  <path
     d="m 43.790057,102.00004 v 6.84082 l 0.19043,2.15919 h -0.19043 c -0.809998,-0.82 -1.610628,-1.36133 -2.390626,-1.61133 -0.779998,-0.26 -1.578206,-0.38965 -2.408204,-0.38965 -1.039998,0 -2.030706,0.23142 -2.970704,0.6914 -0.929998,0.46 -1.729417,1.13028 -2.399415,2.03028 -1.319998,1.73 -1.971681,4.00791 -1.971681,6.83789 0,2.56 0.559223,4.61063 1.699219,6.14063 1.149998,1.53 2.710436,2.29981 4.690432,2.29981 1.139998,0 2.190628,-0.32903 3.140626,-0.99903 0.959998,-0.68 1.830355,-1.68 2.610353,-3 h 0.19043 l -0.19043,3.99903 h 3.169923 v -24.99904 z m -4.338869,9.00001 c 0.699998,0 1.418675,0.20867 2.138673,0.63867 0.719998,0.42 1.460198,1.05258 2.200196,1.89258 v 7.91016 c -0.839998,1.24998 -1.700355,2.14875 -2.610353,2.71875 -0.909998,0.56 -1.729221,0.84082 -2.449219,0.84082 -1.069998,0 -1.949652,-0.49244 -2.63965,-1.48242 -0.699998,-1 -1.051758,-2.69716 -1.051758,-5.07716 0,-2.71998 0.440079,-4.64099 1.330079,-5.75097 0.879998,-1.13 1.912034,-1.69043 3.082032,-1.69043 z"
     style=""
     id="path22" />
  <path
     d="m 177.77058,27.999035 c -0.43,0 -0.78984,0.03203 -1.08984,0.08203 -0.31,0.04 -0.55121,0.08941 -0.74121,0.149414 -0.18,0.07 -0.29915,0.149024 -0.36915,0.249024 -0.07,0.11 -0.0996,0.230861 -0.0996,0.380859 v 32.250014 c 0,0.709998 0.17785,1.199494 0.54785,1.479492 0.36,0.28 0.75187,0.410157 1.17187,0.410157 h 15.36036 c 0.16,0 0.29016,-0.04133 0.41016,-0.111328 0.12,-0.08 0.22004,-0.209141 0.29004,-0.369141 0.09,-0.18 0.13871,-0.389883 0.17871,-0.629883 0.03,-0.24 0.0615,-0.541135 0.0615,-0.911133 0,-0.35 -0.0315,-0.649415 -0.0615,-0.899415 -0.04,-0.25 -0.0887,-0.459375 -0.17871,-0.609375 -0.07,-0.16 -0.17004,-0.268633 -0.29004,-0.348633 -0.12,-0.08 -0.25016,-0.120117 -0.41016,-0.120117 H 180.07918 V 28.860363 c 0,-0.149998 -0.0384,-0.270859 -0.1084,-0.380859 -0.06,-0.1 -0.18207,-0.179024 -0.37207,-0.249024 -0.18,-0.06 -0.41778,-0.109414 -0.71778,-0.149414 -0.29,-0.05 -0.67035,-0.08203 -1.11035,-0.08203 z"
     style=""
     id="path21" />
  <path
     d="m 108.97856,27.999035 c -1.52,0 -2.91875,0.201797 -4.21875,0.591797 -1.3,0.4 -2.42037,0.969729 -3.36035,1.719727 -0.94,0.75 -1.670201,1.690785 -2.200201,2.800783 -0.529998,1.119998 -0.788086,2.379808 -0.788086,3.799806 0,1.379998 0.228477,2.569574 0.688477,3.559572 0.46,0.989998 1.05125,1.849845 1.78125,2.589845 0.74,0.739998 1.56903,1.388946 2.49903,1.918946 0.92998,0.549998 1.87937,1.041213 2.85937,1.491211 0.99,0.45 1.96162,0.889571 2.8916,1.309571 0.95,0.43 1.78954,0.900901 2.51954,1.420899 0.74,0.51 1.32832,1.108831 1.77832,1.798829 0.45,0.679998 0.6709,1.499729 0.6709,2.469727 0,0.87 -0.16047,1.650822 -0.48047,2.340822 -0.33,0.679998 -0.78868,1.249729 -1.38868,1.719727 -0.59998,0.47 -1.3116,0.839844 -2.1416,1.089844 -0.84,0.26 -1.74805,0.38086 -2.74805,0.38086 -1.33998,0 -2.51148,-0.160469 -3.52148,-0.480469 -1.01,-0.32 -1.86985,-0.67004 -2.58985,-1.04004 -0.71,-0.359998 -1.299022,-0.700744 -1.74902,-1.010742 -0.46,-0.31 -0.819337,-0.46875 -1.069337,-0.46875 -0.14,0 -0.27207,0.02789 -0.37207,0.08789 -0.11,0.07 -0.199532,0.181563 -0.269532,0.351563 -0.07,0.17 -0.129922,0.380391 -0.169922,0.650391 -0.03,0.279998 -0.0498,0.609533 -0.0498,1.019531 0,0.57 0.04941,1.028165 0.149414,1.368165 0.1,0.35 0.251172,0.632541 0.451172,0.852539 0.21,0.21 0.580352,0.45879 1.110352,0.75879 0.529998,0.31 1.178247,0.610625 1.948247,0.890625 0.78,0.29 1.67015,0.530704 2.66015,0.720704 1,0.199998 2.08196,0.298828 3.25196,0.298828 1.66,0 3.21943,-0.219182 4.64941,-0.65918 1.44,-0.43 2.69001,-1.081175 3.75001,-1.951173 1.06998,-0.869998 1.90902,-1.929925 2.49902,-3.169923 0.6,-1.239998 0.91113,-2.660982 0.91113,-4.250978 0,-1.349998 -0.2314,-2.518558 -0.6914,-3.518556 -0.45,-0.989998 -1.04004,-1.839339 -1.79004,-2.569337 -0.75,-0.73 -1.59004,-1.36137 -2.54004,-1.901368 -0.95,-0.53 -1.9104,-1.018987 -2.9004,-1.458985 -0.97998,-0.45 -1.94918,-0.900079 -2.90918,-1.330079 -0.95,-0.44 -1.78832,-0.921407 -2.52832,-1.441407 -0.74,-0.529998 -1.34125,-1.127618 -1.78125,-1.807618 -0.45,-0.689998 -0.6709,-1.51094 -0.6709,-2.460938 0,-0.64 0.10985,-1.249339 0.33985,-1.819337 0.24,-0.589998 0.59176,-1.090001 1.05176,-1.500001 0.46998,-0.429998 1.04781,-0.772461 1.75781,-1.022461 0.72,-0.26 1.57125,-0.389649 2.53125,-0.389649 1.04,0 1.98129,0.120352 2.82129,0.360352 0.83,0.23 1.54746,0.489299 2.14746,0.779297 0.62,0.28 1.13274,0.54051 1.55274,0.770508 0.41,0.23 0.71992,0.339844 0.91992,0.339844 0.13,0 0.23812,-0.04012 0.32812,-0.120117 0.1,-0.09 0.18145,-0.20793 0.23145,-0.37793 0.07,-0.18 0.10891,-0.392111 0.12891,-0.662109 0.03,-0.25 0.0498,-0.547696 0.0498,-0.887696 0,-0.34 -0.0193,-0.620821 -0.0293,-0.840821 -0.03,-0.229998 -0.0596,-0.420078 -0.0996,-0.580078 -0.03,-0.15 -0.0701,-0.279141 -0.12011,-0.369141 -0.06,-0.11 -0.17157,-0.230352 -0.35157,-0.360352 -0.17,-0.149998 -0.51761,-0.341289 -1.05761,-0.571289 -0.53,-0.22 -1.14106,-0.428164 -1.83106,-0.618164 -0.69,-0.19 -1.4202,-0.332383 -2.2002,-0.442383 -0.77998,-0.11 -1.56152,-0.169922 -2.31152,-0.169922 z"
     style=""
     id="path20" />
  <path
     d="m 26.789073,27.999035 c -0.409998,0 -0.808947,0.141875 -1.168945,0.421875 -0.37,0.28 -0.550782,0.757776 -0.550782,1.467774 v 32.250013 c 0,0.13 0.03961,0.250352 0.09961,0.360352 0.07,0.12 0.19207,0.199533 0.37207,0.269531 0.19,0.06 0.428282,0.122852 0.738282,0.172852 0.299998,0.04 0.659844,0.05859 1.089844,0.05859 0.469998,0 0.84086,-0.01859 1.13086,-0.05859 0.289998,-0.04 0.520195,-0.101133 0.700195,-0.161133 0.19,-0.06 0.309141,-0.150742 0.369141,-0.260742 0.07,-0.12 0.111328,-0.240352 0.111328,-0.360352 V 48.00002 h 12.029302 c 0.13,0 0.250352,-0.04133 0.360352,-0.111328 0.13,-0.08 0.229336,-0.189846 0.319336,-0.339844 0.09,-0.16 0.151641,-0.350079 0.181641,-0.580079 0.04,-0.239998 0.06738,-0.518399 0.06738,-0.858399 0,-0.359998 -0.02738,-0.660625 -0.06738,-0.890625 -0.03,-0.24 -0.09164,-0.429572 -0.181641,-0.55957 -0.09,-0.15 -0.189336,-0.249338 -0.319336,-0.319336 -0.11,-0.06 -0.230352,-0.09082 -0.360352,-0.09082 H 29.680676 V 32.00099 h 12.738287 c 0.12,0 0.240353,-0.04133 0.360351,-0.111328 0.11,-0.07 0.220549,-0.189846 0.310547,-0.339844 0.09,-0.16 0.16043,-0.359376 0.19043,-0.609376 0.03,-0.259998 0.04102,-0.561133 0.04102,-0.911133 0,-0.349998 -0.01102,-0.659922 -0.04102,-0.919922 -0.03,-0.26 -0.10043,-0.468672 -0.19043,-0.638672 -0.09,-0.17 -0.200547,-0.290352 -0.310547,-0.360352 -0.119998,-0.07 -0.240351,-0.111328 -0.360351,-0.111328 z"
     style=""
     id="path19" />
  <path
     d="m 145.91022,24.00001 c -0.4,0 -0.72903,0.01859 -0.99903,0.05859 -0.28,0.03 -0.50211,0.09113 -0.66211,0.161132 -0.16,0.06 -0.26812,0.150743 -0.32812,0.260743 -0.06,0.11 -0.0908,0.218633 -0.0908,0.348633 v 46.309589 c 0,0.15 0.0308,0.27086 0.0908,0.38086 0.06,0.109998 0.16812,0.200742 0.32812,0.260742 0.16,0.07 0.38211,0.131133 0.66211,0.161133 0.27,0.04 0.59903,0.05859 0.99903,0.05859 0.4,0 0.74074,-0.01859 1.01074,-0.05859 0.27,-0.03 0.48867,-0.09113 0.63867,-0.161133 0.17,-0.06 0.28156,-0.150744 0.35156,-0.260742 0.06,-0.11 0.0879,-0.23086 0.0879,-0.38086 V 24.829112 c 0,-0.13 -0.0279,-0.238633 -0.0879,-0.348633 -0.07,-0.11 -0.18156,-0.200743 -0.35156,-0.260743 -0.15,-0.07 -0.36867,-0.131132 -0.63867,-0.161132 -0.27,-0.04 -0.61074,-0.05859 -1.01074,-0.05859 z"
     style="fill:#002666;fill-opacity:1"
     id="ADW_pipe" />
  <path
     d="m 70.710967,24.00001 c -0.4,0 -0.731954,0.01859 -1.001954,0.05859 -0.28,0.03 -0.49918,0.09113 -0.65918,0.161132 -0.16,0.06 -0.261055,0.150743 -0.331055,0.260743 -0.06,0.11 -0.08789,0.218633 -0.08789,0.348633 v 46.309589 c 0,0.15 0.02789,0.27086 0.08789,0.38086 0.07,0.109998 0.171055,0.200742 0.331055,0.260742 0.16,0.07 0.37918,0.131133 0.65918,0.161133 0.27,0.04 0.601954,0.05859 1.001954,0.05859 0.399998,0 0.737814,-0.01859 1.007812,-0.05859 0.27,-0.03 0.491602,-0.09113 0.641602,-0.161133 0.17,-0.06 0.278633,-0.150744 0.348633,-0.260742 0.06,-0.11 0.09082,-0.23086 0.09082,-0.38086 V 24.829112 c 0,-0.13 -0.03082,-0.238633 -0.09082,-0.348633 -0.07,-0.11 -0.178633,-0.200743 -0.348633,-0.260743 -0.15,-0.07 -0.371602,-0.131132 -0.641602,-0.161132 -0.269998,-0.04 -0.607814,-0.05859 -1.007812,-0.05859 z"
     style="fill:#c60c30;fill-opacity:1"
     id="BBAW_pipe" />
</svg>
